<svg xmlns="http://www.w3.org/2000/svg" xmlns:xlink="http://www.w3.org/1999/xlink" width="500" zoomAndPan="magnify" viewBox="0 0 375 374.999991" height="500" preserveAspectRatio="xMidYMid meet" version="1.0"><defs><filter x="0%" y="0%" width="100%" height="100%" id="f469bd09c6"><feColorMatrix values="0 0 0 0 1 0 0 0 0 1 0 0 0 0 1 0 0 0 1 0" color-interpolation-filters="sRGB"/></filter><clipPath id="67db8aec1c"><path d="M 35.085938 157 L 340 157 L 340 375 L 35.085938 375 Z M 35.085938 157 " clip-rule="nonzero"/></clipPath><clipPath id="32de4e47b4"><path d="M 187.5 157 C 103.324219 157 35.085938 219.292969 35.085938 296.136719 C 35.085938 372.980469 103.324219 435.273438 187.5 435.273438 C 271.675781 435.273438 339.914062 372.980469 339.914062 296.136719 C 339.914062 219.292969 271.675781 157 187.5 157 Z M 187.5 157 " clip-rule="nonzero"/></clipPath><clipPath id="4d18927117"><path d="M 178 369 L 311.835938 369 L 311.835938 375 L 178 375 Z M 178 369 " clip-rule="nonzero"/></clipPath><mask id="1f3e4a1bc9"><g filter="url(#f469bd09c6)"><rect x="-37.5" width="450" fill="#000000" y="-37.499999" height="449.999989" fill-opacity="0.27"/></g></mask><clipPath id="9c23ed3038"><path d="M 0.558594 0.121094 L 133.761719 0.121094 L 133.761719 6 L 0.558594 6 Z M 0.558594 0.121094 " clip-rule="nonzero"/></clipPath><clipPath id="68057f7bcc"><rect x="0" width="134" y="0" height="6"/></clipPath><mask id="3e3266df85"><g filter="url(#f469bd09c6)"><rect x="-37.5" width="450" fill="#000000" y="-37.499999" height="449.999989" fill-opacity="0.46"/></g></mask><clipPath id="ce275efd5a"><path d="M 0.441406 0.519531 L 69.800781 0.519531 L 69.800781 59 L 0.441406 59 Z M 0.441406 0.519531 " clip-rule="nonzero"/></clipPath><clipPath id="a6ec6cba39"><rect x="0" width="70" y="0" height="60"/></clipPath><mask id="4d49de181f"><g filter="url(#f469bd09c6)"><rect x="-37.5" width="450" fill="#000000" y="-37.499999" height="449.999989" fill-opacity="0.56"/></g></mask><clipPath id="5f3a3a4fee"><path d="M 0.199219 0.078125 L 6.441406 0.078125 L 6.441406 3.679688 L 0.199219 3.679688 Z M 0.199219 0.078125 " clip-rule="nonzero"/></clipPath><clipPath id="c6c35f416a"><rect x="0" width="7" y="0" height="4"/></clipPath><clipPath id="2e6bcbe38e"><path d="M 335 48 L 375 48 L 375 105.097656 L 335 105.097656 Z M 335 48 " clip-rule="nonzero"/></clipPath><clipPath id="ddab95782e"><path d="M 0 130 L 40 130 L 40 187.382812 L 0 187.382812 Z M 0 130 " clip-rule="nonzero"/></clipPath><clipPath id="8b4309bdde"><path d="M 241.601562 183.929688 L 328.601562 183.929688 L 328.601562 212.429688 L 241.601562 212.429688 Z M 241.601562 183.929688 " clip-rule="nonzero"/></clipPath><clipPath id="4b2356beea"><path d="M 14.515625 14.785156 L 101.515625 14.785156 L 101.515625 43.285156 L 14.515625 43.285156 Z M 14.515625 14.785156 " clip-rule="nonzero"/></clipPath></defs><g clip-path="url(#67db8aec1c)"><g clip-path="url(#32de4e47b4)"><path fill="#b6e5ff" d="M 35.085938 157 L 339.445312 157 L 339.445312 435.273438 L 35.085938 435.273438 Z M 35.085938 157 " fill-opacity="1" fill-rule="nonzero"/></g></g><path fill="#004aad" d="M 88.542969 364.304688 C 78.988281 357.527344 69.085938 343.1875 60.371094 326.863281 C 47.828125 303.367188 37.820312 275.734375 35.140625 259.917969 C 35.074219 259.507812 34.691406 259.230469 34.28125 259.292969 C 33.875 259.359375 33.59375 259.742188 33.660156 260.152344 C 36.011719 276.175781 45.492188 304.292969 57.628906 328.289062 C 66.289062 345.414062 76.351562 360.417969 86.101562 367.664062 C 87.027344 368.335938 88.328125 368.132812 89 367.203125 C 89.675781 366.277344 89.46875 364.976562 88.542969 364.304688 Z M 88.542969 364.304688 " fill-opacity="1" fill-rule="evenodd"/><path fill="#004aad" d="M 34.425781 260.609375 C 29.335938 255.386719 27.167969 241.984375 28.378906 235.238281 C 28.824219 232.730469 30.371094 226.800781 34.011719 227.316406 C 37.417969 227.796875 37.671875 233.523438 37.742188 236.046875 C 38.003906 245.199219 35.722656 254.167969 35.316406 263.277344 " fill-opacity="1" fill-rule="evenodd"/><path fill="#004aad" d="M 41.054688 282.90625 C 39.769531 281.277344 40.625 276.304688 40.71875 274.460938 C 41.085938 267.070312 42.585938 252.738281 49.46875 248.445312 C 50.875 247.570312 52.707031 247.273438 54.261719 247.929688 C 60.191406 250.429688 59.277344 259.210938 57.503906 264.046875 C 56.390625 267.085938 54.539062 269.730469 52.589844 272.289062 C 49.511719 276.328125 45.613281 279.359375 42.214844 283.066406 " fill-opacity="1" fill-rule="evenodd"/><path fill="#004aad" d="M 40.941406 284.816406 C 39.453125 276.871094 25.824219 257.859375 16.914062 260.253906 C 12.675781 261.398438 12.074219 266.246094 13.707031 269.714844 C 16.210938 275.03125 21.859375 277.660156 27.105469 279.480469 C 31.214844 280.902344 35.527344 282.011719 39.84375 282.59375 " fill-opacity="1" fill-rule="evenodd"/><path fill="#004aad" d="M 50.246094 309.882812 C 49.199219 306.984375 50.1875 302.785156 50.664062 299.898438 C 52.050781 291.53125 56.726562 274.851562 67.402344 274.386719 C 74.214844 274.089844 74.351562 282.496094 72.582031 287.074219 C 71.140625 290.796875 68.636719 294.179688 65.792969 296.953125 C 61.28125 301.347656 55.210938 304.003906 50.929688 308.53125 " fill-opacity="1" fill-rule="evenodd"/><path fill="#004aad" d="M 50.730469 310.507812 C 44.6875 304.871094 37.515625 300.070312 29.578125 297.597656 C 26.492188 296.636719 20.808594 296.050781 19.289062 299.867188 C 17.691406 303.882812 22.03125 307.699219 25.085938 309.429688 C 32.789062 313.804688 42.492188 313.304688 50.917969 311.796875 " fill-opacity="1" fill-rule="evenodd"/><path fill="#004aad" d="M 66.339844 340.1875 C 62.886719 331.421875 63.398438 316.058594 68.777344 308.378906 C 71.808594 304.042969 83.507812 295.875 86.945312 304.042969 C 88.40625 307.503906 85.699219 311.878906 83.808594 314.617188 C 80.980469 318.714844 77.21875 322.0625 74.324219 326.117188 C 71.207031 330.472656 69.199219 335.390625 66.59375 340.039062 " fill-opacity="1" fill-rule="evenodd"/><path fill="#004aad" d="M 65.949219 343.03125 C 61.492188 335.699219 51.09375 328.714844 43.183594 326.179688 C 39.035156 324.851562 33.566406 324.273438 29.949219 327.28125 C 26.417969 330.222656 27.519531 335.214844 30.535156 338.082031 C 35.1875 342.503906 42.558594 343.144531 48.621094 343.058594 C 54.949219 342.96875 61.265625 343.332031 67.578125 343.335938 " fill-opacity="1" fill-rule="evenodd"/><path fill="#004aad" d="M 292.085938 364.304688 C 301.640625 357.527344 311.542969 343.1875 320.257812 326.863281 C 332.800781 303.367188 342.808594 275.734375 345.488281 259.917969 C 345.554688 259.507812 345.9375 259.230469 346.347656 259.292969 C 346.753906 259.359375 347.035156 259.742188 346.96875 260.152344 C 344.617188 276.175781 335.136719 304.292969 323 328.289062 C 314.339844 345.414062 304.277344 360.417969 294.527344 367.664062 C 293.601562 368.335938 292.300781 368.132812 291.628906 367.203125 C 290.953125 366.277344 291.160156 364.976562 292.085938 364.304688 Z M 292.085938 364.304688 " fill-opacity="1" fill-rule="evenodd"/><path fill="#004aad" d="M 346.207031 260.609375 C 351.292969 255.386719 353.460938 241.984375 352.25 235.238281 C 351.804688 232.730469 350.257812 226.800781 346.617188 227.316406 C 343.210938 227.796875 342.957031 233.523438 342.886719 236.046875 C 342.625 245.199219 344.90625 254.167969 345.3125 263.277344 " fill-opacity="1" fill-rule="evenodd"/><path fill="#004aad" d="M 339.574219 282.90625 C 340.859375 281.277344 340.003906 276.304688 339.914062 274.460938 C 339.542969 267.070312 338.042969 252.738281 331.160156 248.445312 C 329.753906 247.570312 327.921875 247.273438 326.371094 247.929688 C 320.4375 250.429688 321.351562 259.210938 323.125 264.046875 C 324.238281 267.085938 326.089844 269.730469 328.039062 272.289062 C 331.117188 276.328125 335.015625 279.359375 338.414062 283.066406 " fill-opacity="1" fill-rule="evenodd"/><path fill="#004aad" d="M 339.6875 284.816406 C 341.175781 276.871094 354.804688 257.859375 363.714844 260.253906 C 367.953125 261.398438 368.554688 266.246094 366.921875 269.714844 C 364.417969 275.03125 358.769531 277.660156 353.523438 279.480469 C 349.414062 280.902344 345.101562 282.011719 340.789062 282.59375 " fill-opacity="1" fill-rule="evenodd"/><path fill="#004aad" d="M 330.382812 309.882812 C 331.429688 306.984375 330.441406 302.785156 329.964844 299.898438 C 328.578125 291.53125 323.902344 274.851562 313.226562 274.386719 C 306.414062 274.089844 306.277344 282.496094 308.046875 287.074219 C 309.488281 290.796875 311.992188 294.179688 314.835938 296.953125 C 319.347656 301.347656 325.417969 304.003906 329.699219 308.53125 " fill-opacity="1" fill-rule="evenodd"/><path fill="#004aad" d="M 329.898438 310.507812 C 335.941406 304.871094 343.113281 300.070312 351.050781 297.597656 C 354.136719 296.636719 359.820312 296.050781 361.339844 299.867188 C 362.9375 303.882812 358.597656 307.699219 355.542969 309.429688 C 347.839844 313.804688 338.136719 313.304688 329.710938 311.796875 " fill-opacity="1" fill-rule="evenodd"/><path fill="#004aad" d="M 314.292969 340.1875 C 317.742188 331.421875 317.230469 316.058594 311.851562 308.378906 C 308.820312 304.042969 297.121094 295.875 293.683594 304.042969 C 292.222656 307.503906 294.929688 311.878906 296.820312 314.617188 C 299.648438 318.714844 303.410156 322.0625 306.304688 326.117188 C 309.421875 330.472656 311.429688 335.390625 314.035156 340.039062 " fill-opacity="1" fill-rule="evenodd"/><path fill="#004aad" d="M 314.679688 343.03125 C 319.136719 335.699219 329.535156 328.714844 337.445312 326.179688 C 341.59375 324.851562 347.0625 324.273438 350.679688 327.28125 C 354.210938 330.222656 353.109375 335.214844 350.09375 338.082031 C 345.441406 342.503906 338.070312 343.144531 332.007812 343.058594 C 325.679688 342.96875 319.363281 343.332031 313.050781 343.335938 " fill-opacity="1" fill-rule="evenodd"/><path fill="#000000" d="M 106.175781 220.164062 C 105.859375 222.828125 105.539062 225.527344 105.90625 228.183594 C 106.023438 229.035156 106.214844 229.894531 106.648438 230.636719 C 107.085938 231.378906 107.792969 231.996094 108.640625 232.15625 C 109.421875 231.414062 110.503906 230.53125 110.976562 229.558594 C 111.582031 228.3125 111.582031 226.863281 111.433594 225.484375 C 111.28125 224.058594 110.96875 222.601562 110.140625 221.429688 C 109.3125 220.257812 107.589844 219.925781 106.175781 220.164062 Z M 106.175781 220.164062 " fill-opacity="1" fill-rule="nonzero"/><path fill="#004aad" d="M 147.5625 377.828125 C 147.492188 367.34375 146.449219 355.683594 146.230469 349.167969 C 145.167969 317.46875 143.457031 314.128906 143.457031 314.128906 L 111.714844 317.15625 L 86.25 320.265625 L 81.242188 389.839844 L 114.945312 389.941406 L 117.175781 370.367188 L 117.519531 389.949219 L 147.53125 390.035156 Z M 147.5625 377.828125 " fill-opacity="1" fill-rule="nonzero"/><path fill="#000000" d="M 117.175781 370.597656 C 117.085938 370.597656 117 370.546875 116.964844 370.460938 C 116.914062 370.34375 116.96875 370.207031 117.085938 370.15625 L 130.605469 364.335938 C 130.722656 364.285156 130.855469 364.339844 130.90625 364.457031 C 130.957031 364.574219 130.902344 364.710938 130.785156 364.761719 L 117.265625 370.582031 C 117.238281 370.59375 117.207031 370.597656 117.175781 370.597656 Z M 117.175781 370.597656 " fill-opacity="1" fill-rule="nonzero"/><g clip-path="url(#4d18927117)"><path fill="#4c9cc8" d="M 178.957031 369.914062 L 311.234375 369.914062 L 311.234375 377.0625 L 178.957031 377.0625 Z M 178.957031 369.914062 " fill-opacity="1" fill-rule="nonzero"/><g mask="url(#1f3e4a1bc9)"><g transform="matrix(1, 0, 0, 1, 178, 369)"><g clip-path="url(#68057f7bcc)"><g clip-path="url(#9c23ed3038)"><path fill="#000000" d="M 0.957031 0.914062 L 133.234375 0.914062 L 133.234375 8.0625 L 0.957031 8.0625 Z M 0.957031 0.914062 " fill-opacity="1" fill-rule="nonzero"/></g></g></g></g></g><path fill="#000000" d="M 248.445312 269.835938 L 240.4375 314.902344 L 278.3125 318.539062 L 276.953125 277.390625 Z M 248.445312 269.835938 " fill-opacity="1" fill-rule="nonzero"/><path fill="#f8b498" d="M 261.875 285.699219 L 263.753906 313.65625 L 250.085938 313.9375 L 250.382812 295.503906 Z M 261.875 285.699219 " fill-opacity="1" fill-rule="nonzero"/><path fill="#ffffff" d="M 245.699219 310.925781 L 244.085938 311.121094 C 240.1875 311.59375 235.492188 315.269531 234.09375 318.9375 L 223.574219 343.621094 L 227.972656 325.296875 L 214.871094 322.65625 L 209.609375 347.785156 C 208.542969 351.542969 208.355469 355.496094 209.0625 359.335938 C 209.824219 363.476562 213.390625 366.503906 217.597656 366.578125 C 222.363281 366.667969 226.816406 364.226562 229.308594 360.167969 L 237.746094 346.414062 L 247.226562 369.421875 L 296 372.992188 C 301.421875 373.386719 306.320312 369.769531 307.539062 364.46875 C 308.597656 359.859375 307.941406 355.019531 305.695312 350.855469 L 290.890625 321.207031 C 290.21875 319.859375 289.328125 318.566406 288.273438 317.371094 C 284.394531 312.972656 278.703125 310.601562 272.839844 310.578125 L 265.308594 310.546875 Z M 245.699219 310.925781 " fill-opacity="1" fill-rule="nonzero"/><path fill="#000000" d="M 242.949219 273.515625 C 242.949219 273.515625 233.332031 265.996094 243.171875 259.828125 C 249.890625 255.617188 261.355469 261.199219 261.355469 261.199219 Z M 242.949219 273.515625 " fill-opacity="1" fill-rule="nonzero"/><path fill="#000000" d="M 261.894531 261.3125 C 262.488281 261.4375 263.078125 261.582031 263.65625 261.753906 C 264.238281 261.921875 264.8125 262.117188 265.375 262.335938 C 265.9375 262.554688 266.488281 262.792969 267.027344 263.054688 C 267.566406 263.316406 268.089844 263.601562 268.597656 263.902344 C 269.109375 264.207031 269.601562 264.53125 270.078125 264.875 C 270.550781 265.21875 271.007812 265.578125 271.445312 265.957031 C 271.882812 266.335938 272.296875 266.734375 272.691406 267.144531 C 273.085938 267.554688 273.457031 267.980469 273.804688 268.417969 C 274.152344 268.859375 274.472656 269.3125 274.773438 269.773438 C 275.070312 270.238281 275.339844 270.710938 275.585938 271.195312 C 275.828125 271.675781 276.046875 272.167969 276.234375 272.664062 C 276.425781 273.164062 276.585938 273.664062 276.71875 274.171875 C 276.851562 274.679688 276.953125 275.191406 277.027344 275.707031 C 277.101562 276.21875 277.148438 276.730469 277.164062 277.246094 C 277.175781 277.757812 277.164062 278.269531 277.117188 278.777344 C 277.074219 279.285156 277 279.789062 276.898438 280.289062 C 276.796875 280.789062 276.664062 281.28125 276.503906 281.765625 C 276.34375 282.25 276.152344 282.726562 275.9375 283.191406 C 275.71875 283.65625 275.476562 284.109375 275.207031 284.550781 C 274.933594 284.992188 274.636719 285.421875 274.316406 285.835938 C 273.992188 286.25 273.648438 286.648438 273.277344 287.03125 C 272.90625 287.414062 272.511719 287.777344 272.097656 288.125 C 271.679688 288.472656 271.246094 288.800781 270.789062 289.109375 C 270.332031 289.414062 269.855469 289.703125 269.363281 289.96875 C 268.871094 290.234375 268.363281 290.480469 267.839844 290.703125 C 267.3125 290.921875 266.777344 291.121094 266.222656 291.296875 C 265.671875 291.472656 265.109375 291.625 264.539062 291.75 C 263.964844 291.878906 263.386719 291.980469 262.796875 292.058594 C 262.210938 292.136719 261.617188 292.191406 261.015625 292.21875 C 260.417969 292.246094 259.816406 292.246094 259.214844 292.226562 C 258.613281 292.203125 258.011719 292.15625 257.410156 292.082031 C 256.808594 292.007812 256.210938 291.910156 255.613281 291.789062 C 255.019531 291.664062 254.433594 291.519531 253.851562 291.347656 C 253.269531 291.179688 252.699219 290.984375 252.136719 290.765625 C 251.574219 290.550781 251.023438 290.308594 250.484375 290.046875 C 249.945312 289.785156 249.421875 289.503906 248.910156 289.199219 C 248.402344 288.894531 247.910156 288.570312 247.433594 288.226562 C 246.957031 287.882812 246.5 287.523438 246.0625 287.144531 C 245.628906 286.765625 245.210938 286.371094 244.816406 285.957031 C 244.421875 285.546875 244.050781 285.121094 243.707031 284.683594 C 243.359375 284.242188 243.035156 283.789062 242.738281 283.328125 C 242.441406 282.863281 242.167969 282.390625 241.925781 281.90625 C 241.679688 281.425781 241.464844 280.933594 241.273438 280.4375 C 241.085938 279.9375 240.921875 279.4375 240.789062 278.929688 C 240.660156 278.421875 240.554688 277.910156 240.480469 277.398438 C 240.40625 276.882812 240.363281 276.371094 240.347656 275.855469 C 240.332031 275.34375 240.347656 274.832031 240.390625 274.324219 C 240.433594 273.816406 240.507812 273.3125 240.609375 272.8125 C 240.714844 272.3125 240.847656 271.820312 241.007812 271.335938 C 241.167969 270.851562 241.355469 270.375 241.574219 269.910156 C 241.789062 269.445312 242.03125 268.992188 242.304688 268.550781 C 242.574219 268.109375 242.871094 267.679688 243.195312 267.265625 C 243.515625 266.851562 243.863281 266.453125 244.234375 266.070312 C 244.605469 265.6875 244.996094 265.324219 245.414062 264.976562 C 245.828125 264.628906 246.265625 264.300781 246.722656 263.996094 C 247.179688 263.6875 247.652344 263.398438 248.144531 263.132812 C 248.636719 262.867188 249.148438 262.621094 249.671875 262.398438 C 250.195312 262.179688 250.734375 261.980469 251.285156 261.804688 C 251.835938 261.628906 252.398438 261.476562 252.972656 261.351562 C 253.542969 261.222656 254.125 261.121094 254.710938 261.042969 C 255.300781 260.964844 255.894531 260.910156 256.492188 260.882812 C 257.089844 260.855469 257.691406 260.855469 258.292969 260.875 C 258.898438 260.898438 259.5 260.945312 260.101562 261.019531 C 260.703125 261.09375 261.300781 261.191406 261.894531 261.3125 Z M 261.894531 261.3125 " fill-opacity="1" fill-rule="nonzero"/><path fill="#000000" d="M 250.382812 295.503906 L 260.457031 294.28125 L 250.226562 305.222656 Z M 250.382812 295.503906 " fill-opacity="1" fill-rule="nonzero"/><path fill="#f8b498" d="M 265.035156 287.050781 C 260.449219 299.085938 250.414062 298.050781 250.414062 298.050781 C 241.886719 297.921875 237.722656 292.441406 236.925781 285.761719 C 236.3125 280.625 239.734375 273.011719 241.574219 268.667969 C 242.195312 267.203125 243.246094 265.941406 244.648438 265.179688 C 256.65625 258.644531 272.347656 267.871094 265.035156 287.050781 Z M 265.035156 287.050781 " fill-opacity="1" fill-rule="nonzero"/><path fill="#000000" d="M 242.957031 284.957031 L 241.8125 284.488281 C 241.433594 284.300781 241.269531 283.84375 241.460938 283.421875 L 242.640625 281.519531 C 242.726562 281.382812 242.90625 281.339844 243.042969 281.425781 C 243.175781 281.507812 243.21875 281.6875 243.136719 281.824219 L 241.972656 283.691406 C 241.925781 283.796875 241.96875 283.921875 242.050781 283.960938 L 243.175781 284.417969 C 243.324219 284.480469 243.394531 284.648438 243.335938 284.796875 C 243.289062 284.910156 243.179688 284.976562 243.066406 284.976562 C 243.027344 284.976562 242.992188 284.972656 242.957031 284.957031 Z M 242.957031 284.957031 " fill-opacity="1" fill-rule="nonzero"/><path fill="#000000" d="M 250.777344 280.65625 C 250.777344 280.8125 250.746094 280.960938 250.6875 281.105469 C 250.628906 281.25 250.542969 281.378906 250.429688 281.488281 C 250.320312 281.597656 250.191406 281.683594 250.046875 281.746094 C 249.902344 281.804688 249.753906 281.835938 249.597656 281.835938 C 249.441406 281.835938 249.289062 281.804688 249.144531 281.746094 C 249 281.683594 248.875 281.597656 248.761719 281.488281 C 248.652344 281.378906 248.566406 281.25 248.507812 281.105469 C 248.449219 280.960938 248.417969 280.8125 248.417969 280.65625 C 248.417969 280.5 248.449219 280.347656 248.507812 280.203125 C 248.566406 280.058594 248.652344 279.933594 248.761719 279.820312 C 248.875 279.710938 249 279.625 249.144531 279.566406 C 249.289062 279.503906 249.441406 279.476562 249.597656 279.476562 C 249.753906 279.476562 249.902344 279.503906 250.046875 279.566406 C 250.191406 279.625 250.320312 279.710938 250.429688 279.820312 C 250.542969 279.933594 250.628906 280.058594 250.6875 280.203125 C 250.746094 280.347656 250.777344 280.5 250.777344 280.65625 Z M 250.777344 280.65625 " fill-opacity="1" fill-rule="nonzero"/><path fill="#000000" d="M 240.613281 277.621094 C 240.015625 277.523438 239.453125 277.925781 239.351562 278.519531 C 239.253906 279.117188 239.65625 279.679688 240.25 279.78125 C 240.847656 279.878906 241.410156 279.476562 241.511719 278.882812 C 241.609375 278.285156 241.207031 277.722656 240.613281 277.621094 Z M 240.613281 277.621094 " fill-opacity="1" fill-rule="nonzero"/><path fill="#000000" d="M 241.285156 287.476562 C 241.152344 287.386719 241.113281 287.207031 241.203125 287.074219 C 241.289062 286.941406 241.46875 286.90625 241.605469 286.992188 C 241.636719 287.011719 244.769531 289.019531 247.902344 287.195312 C 248.042969 287.117188 248.21875 287.164062 248.300781 287.300781 C 248.378906 287.441406 248.332031 287.617188 248.195312 287.699219 C 247.101562 288.335938 246.019531 288.554688 245.046875 288.554688 C 242.960938 288.554688 241.382812 287.535156 241.285156 287.476562 Z M 241.285156 287.476562 " fill-opacity="1" fill-rule="nonzero"/><path fill="#000000" d="M 240.972656 271.371094 C 239.425781 271.386719 238.453125 272.15625 237.972656 272.675781 C 237.734375 272.933594 237.679688 273.308594 237.820312 273.625 C 237.996094 274.023438 238.429688 274.238281 238.851562 274.132812 C 239.59375 273.949219 240.398438 273.972656 241.667969 273.976562 C 243.339844 273.984375 243.125 272.605469 243.125 272.605469 C 243.125 272.605469 242.957031 271.351562 240.972656 271.371094 Z M 240.972656 271.371094 " fill-opacity="1" fill-rule="nonzero"/><path fill="#000000" d="M 251.871094 273.210938 C 253.769531 273.769531 255.519531 275.5 255.9375 276.160156 C 256.148438 276.488281 256.09375 276.863281 255.8125 277.117188 C 255.46875 277.429688 254.863281 277.480469 254.378906 277.234375 C 253.527344 276.796875 251.722656 275.878906 250.15625 275.433594 C 248.097656 274.851562 248.816406 273.617188 248.816406 273.617188 C 248.816406 273.617188 249.433594 272.492188 251.871094 273.210938 Z M 251.871094 273.210938 " fill-opacity="1" fill-rule="nonzero"/><path fill="#000000" d="M 270.628906 275.09375 C 245.445312 272.285156 249.09375 262.269531 249.09375 262.269531 C 274.515625 260.894531 270.628906 275.09375 270.628906 275.09375 Z M 270.628906 275.09375 " fill-opacity="1" fill-rule="nonzero"/><path fill="#000000" d="M 275.585938 278.921875 L 262.113281 286.953125 L 263.242188 271.679688 Z M 275.585938 278.921875 " fill-opacity="1" fill-rule="nonzero"/><path fill="#f8b498" d="M 268.746094 283.242188 C 266.054688 281.785156 262.691406 282.78125 261.230469 285.46875 C 259.769531 288.160156 260.765625 291.523438 263.457031 292.984375 C 266.144531 294.445312 269.511719 293.449219 270.972656 290.757812 C 272.433594 288.070312 271.433594 284.703125 268.746094 283.242188 Z M 268.746094 283.242188 " fill-opacity="1" fill-rule="nonzero"/><path fill="#f8b498" d="M 263.875 288.960938 C 265.449219 285.050781 268.875 287.035156 268.875 287.035156 " fill-opacity="1" fill-rule="nonzero"/><path fill="#f8b498" d="M 252.277344 317.933594 C 241.65625 317.933594 245.699219 310.925781 245.699219 310.925781 L 249.460938 310.324219 L 267.714844 310.503906 C 267.46875 311.613281 262.898438 317.933594 252.277344 317.933594 Z M 252.277344 317.933594 " fill-opacity="1" fill-rule="nonzero"/><path fill="#f8b498" d="M 259.972656 358.398438 L 246.28125 360.289062 L 246.53125 367.128906 L 260.269531 369.953125 C 260.269531 369.953125 260.027344 360.757812 259.972656 358.398438 Z M 259.972656 358.398438 " fill-opacity="1" fill-rule="nonzero"/><path fill="#000000" d="M 237.472656 346.515625 C 237.453125 346.457031 235.46875 340.832031 236.570312 334.550781 C 237.660156 328.324219 238.585938 325.519531 238.59375 325.492188 C 238.644531 325.34375 238.808594 325.257812 238.960938 325.308594 C 239.113281 325.359375 239.195312 325.523438 239.144531 325.675781 C 239.136719 325.703125 238.222656 328.476562 237.140625 334.652344 C 236.066406 340.777344 238 346.265625 238.019531 346.320312 C 238.074219 346.46875 237.992188 346.636719 237.84375 346.691406 C 237.8125 346.703125 237.777344 346.707031 237.746094 346.707031 C 237.625 346.707031 237.515625 346.632812 237.472656 346.515625 Z M 237.472656 346.515625 " fill-opacity="1" fill-rule="nonzero"/><path fill="#000000" d="M 242.769531 344.996094 L 243.867188 342.835938 L 246.234375 343.988281 L 245.183594 346.152344 Z M 242.769531 344.996094 " fill-opacity="1" fill-rule="nonzero"/><path fill="#000000" d="M 231.289062 371.546875 L 230.929688 372.898438 C 230.851562 373.1875 231.0625 373.273438 231.238281 373.023438 L 232.046875 371.851562 C 231.921875 371.519531 231.625 371.382812 231.289062 371.546875 Z M 231.289062 371.546875 " fill-opacity="1" fill-rule="nonzero"/><path fill="#004aad" d="M 242.863281 344.792969 L 244.074219 345.375 L 245.28125 345.949219 L 235.089844 367.660156 L 235.035156 367.773438 L 235.015625 367.765625 L 231.96875 372.003906 C 231.835938 371.695312 231.542969 371.5625 231.214844 371.695312 L 232.433594 366.707031 L 232.398438 366.6875 L 232.472656 366.535156 Z M 242.863281 344.792969 " fill-opacity="1" fill-rule="nonzero"/><path fill="#f8b498" d="M 243.765625 343.046875 L 244.042969 342.496094 C 244.429688 341.738281 245.261719 341.382812 245.90625 341.703125 C 246.53125 342.015625 246.75 342.851562 246.40625 343.601562 L 246.136719 344.1875 Z M 243.765625 343.046875 " fill-opacity="1" fill-rule="nonzero"/><path fill="#f8b498" d="M 225.222656 370.847656 C 225.785156 371.058594 226.40625 370.945312 226.847656 370.550781 L 230.71875 367.085938 C 232.507812 365.480469 235.34375 364.363281 237.636719 365.53125 C 238.34375 365.890625 238.921875 366.484375 239.558594 366.949219 C 241.1875 368.128906 243.152344 368.007812 245.027344 367.578125 C 246.347656 367.273438 247.613281 366.730469 248.75 365.992188 C 249.097656 365.765625 249.429688 365.527344 249.746094 365.261719 C 249.796875 365.222656 250.082031 365.035156 250.082031 364.964844 C 250.082031 364.960938 250.292969 360.0625 250.292969 360.0625 L 235.953125 359.847656 C 233.285156 359.808594 230.757812 360.945312 229.015625 362.964844 L 224.527344 368.183594 C 223.777344 369.050781 224.140625 370.4375 225.222656 370.847656 Z M 225.222656 370.847656 " fill-opacity="1" fill-rule="nonzero"/><path fill="#000000" d="M 260.097656 358.378906 C 260.066406 358.21875 260.171875 358.070312 260.328125 358.039062 L 285.8125 353.390625 L 278.050781 336.953125 C 277.984375 336.808594 278.046875 336.636719 278.191406 336.566406 C 278.335938 336.5 278.507812 336.5625 278.578125 336.707031 L 286.5 353.484375 C 286.539062 353.566406 286.535156 353.660156 286.496094 353.742188 C 286.453125 353.824219 286.378906 353.878906 286.289062 353.894531 L 260.433594 358.613281 C 260.417969 358.613281 260.398438 358.617188 260.382812 358.617188 C 260.242188 358.617188 260.121094 358.515625 260.097656 358.378906 Z M 260.097656 358.378906 " fill-opacity="1" fill-rule="nonzero"/><path fill="#004aad" d="M 176.09375 321.746094 L 239.878906 321.746094 L 254.90625 368.566406 L 191.1875 368.566406 Z M 176.09375 321.746094 " fill-opacity="1" fill-rule="nonzero"/><path fill="#004aad" d="M 191.1875 367.433594 L 275.585938 367.433594 L 275.585938 373.410156 L 191.1875 373.410156 Z M 191.1875 367.433594 " fill-opacity="1" fill-rule="nonzero"/><path fill="#4c9cc8" d="M 216.578125 350.625 C 216.578125 350.902344 216.554688 351.171875 216.5 351.441406 C 216.445312 351.710938 216.367188 351.96875 216.261719 352.222656 C 216.15625 352.476562 216.027344 352.71875 215.875 352.945312 C 215.722656 353.171875 215.550781 353.382812 215.359375 353.578125 C 215.164062 353.769531 214.953125 353.945312 214.726562 354.097656 C 214.496094 354.25 214.257812 354.375 214.003906 354.480469 C 213.75 354.585938 213.488281 354.664062 213.222656 354.71875 C 212.953125 354.773438 212.679688 354.800781 212.40625 354.800781 C 212.132812 354.800781 211.863281 354.773438 211.59375 354.71875 C 211.324219 354.664062 211.0625 354.585938 210.8125 354.480469 C 210.558594 354.375 210.316406 354.25 210.089844 354.097656 C 209.863281 353.945312 209.652344 353.769531 209.457031 353.578125 C 209.261719 353.382812 209.089844 353.171875 208.9375 352.945312 C 208.785156 352.71875 208.65625 352.476562 208.550781 352.222656 C 208.449219 351.96875 208.367188 351.710938 208.316406 351.441406 C 208.261719 351.171875 208.234375 350.902344 208.234375 350.625 C 208.234375 350.351562 208.261719 350.082031 208.316406 349.8125 C 208.367188 349.542969 208.449219 349.28125 208.550781 349.03125 C 208.65625 348.777344 208.785156 348.535156 208.9375 348.308594 C 209.089844 348.082031 209.261719 347.871094 209.457031 347.675781 C 209.652344 347.484375 209.863281 347.308594 210.089844 347.15625 C 210.316406 347.003906 210.558594 346.875 210.8125 346.773438 C 211.0625 346.667969 211.324219 346.589844 211.59375 346.535156 C 211.863281 346.480469 212.132812 346.453125 212.40625 346.453125 C 212.679688 346.453125 212.953125 346.480469 213.222656 346.535156 C 213.488281 346.589844 213.75 346.667969 214.003906 346.773438 C 214.257812 346.875 214.496094 347.003906 214.726562 347.15625 C 214.953125 347.308594 215.164062 347.484375 215.359375 347.675781 C 215.550781 347.871094 215.722656 348.082031 215.875 348.308594 C 216.027344 348.535156 216.15625 348.777344 216.261719 349.03125 C 216.367188 349.28125 216.445312 349.542969 216.5 349.8125 C 216.554688 350.082031 216.578125 350.351562 216.578125 350.625 Z M 216.578125 350.625 " fill-opacity="1" fill-rule="nonzero"/><path fill="#f8b498" d="M 89.832031 273.789062 C 89.832031 273.789062 58.070312 316.183594 58.070312 316.183594 C 51.015625 325.96875 35.421875 315.449219 41.945312 305.238281 L 60.601562 277.351562 Z M 89.832031 273.789062 " fill-opacity="1" fill-rule="nonzero"/><path fill="#ffffff" d="M 79.363281 301.066406 L 50.929688 282.351562 C 58.015625 271.382812 75.964844 241 87.742188 244.875 C 119.761719 257.445312 84.636719 292.40625 79.363281 301.066406 Z M 79.363281 301.066406 " fill-opacity="1" fill-rule="nonzero"/><path fill="#ffffff" d="M 141.8125 279.0625 L 155.800781 275.839844 C 154.980469 245.867188 134.601562 244.535156 134.601562 244.535156 Z M 141.8125 279.0625 " fill-opacity="1" fill-rule="nonzero"/><path fill="#ffffff" d="M 77.316406 263.960938 L 85.410156 322.65625 L 135.691406 322.65625 C 140.234375 302.832031 156.625 250.566406 137.269531 245.074219 C 120.167969 240.226562 107.566406 240.222656 84.789062 244.410156 C 77.664062 244.847656 79.40625 259.242188 77.316406 263.960938 Z M 77.316406 263.960938 " fill-opacity="1" fill-rule="nonzero"/><path fill="#000000" d="M 83.667969 297.867188 L 78.246094 274.945312 C 78.214844 274.8125 78.296875 274.679688 78.429688 274.648438 C 78.5625 274.621094 78.691406 274.699219 78.722656 274.832031 L 84.144531 297.753906 C 84.175781 297.882812 84.09375 298.015625 83.964844 298.046875 C 83.945312 298.050781 83.925781 298.054688 83.90625 298.054688 C 83.796875 298.054688 83.695312 297.976562 83.667969 297.867188 Z M 83.667969 297.867188 " fill-opacity="1" fill-rule="nonzero"/><path fill="#000000" d="M 142.328125 290.210938 C 142.195312 290.191406 142.101562 290.066406 142.121094 289.933594 L 145.386719 267.011719 C 145.40625 266.878906 145.519531 266.785156 145.664062 266.804688 C 145.796875 266.824219 145.890625 266.949219 145.871094 267.082031 L 142.605469 290.003906 C 142.589844 290.125 142.484375 290.214844 142.363281 290.214844 C 142.351562 290.214844 142.34375 290.210938 142.328125 290.210938 Z M 142.328125 290.210938 " fill-opacity="1" fill-rule="nonzero"/><path fill="#f8b498" d="M 108.421875 300.109375 L 126.5625 300.730469 L 134.601562 283.628906 C 113.859375 275.347656 105.949219 289.359375 105.949219 289.359375 Z M 108.421875 300.109375 " fill-opacity="1" fill-rule="nonzero"/><path fill="#f8b498" d="M 109.316406 299.792969 L 53.480469 319.699219 L 50.222656 298.914062 L 107.214844 289.140625 Z M 109.316406 299.792969 " fill-opacity="1" fill-rule="nonzero"/><path fill="#000000" d="M 56.433594 297.851562 C 56.414062 297.714844 56.503906 297.589844 56.636719 297.566406 L 70.257812 295.230469 C 70.398438 295.210938 70.515625 295.300781 70.539062 295.433594 C 70.558594 295.566406 70.472656 295.691406 70.335938 295.714844 L 56.71875 298.050781 C 56.703125 298.054688 56.691406 298.054688 56.675781 298.054688 C 56.558594 298.054688 56.453125 297.96875 56.433594 297.851562 Z M 56.433594 297.851562 " fill-opacity="1" fill-rule="nonzero"/><path fill="#4c9cc8" d="M 187.09375 274.617188 C 170.25 268.90625 129.074219 275.839844 129.074219 275.839844 L 106.125 329.722656 L 109.902344 333.917969 Z M 187.09375 274.617188 " fill-opacity="1" fill-rule="nonzero"/><path fill="#000000" d="M 162.679688 321.613281 C 159.21875 328.328125 149.714844 328.371094 149.714844 328.371094 L 176.039062 276.125 L 187.089844 274.617188 Z M 162.679688 321.613281 " fill-opacity="1" fill-rule="nonzero"/><path fill="#004aad" d="M 151.488281 328.125 L 109.902344 333.921875 L 132.292969 279.910156 L 178.140625 275.835938 Z M 151.488281 328.125 " fill-opacity="1" fill-rule="nonzero"/><g mask="url(#3e3266df85)"><g transform="matrix(1, 0, 0, 1, 109, 275)"><g clip-path="url(#a6ec6cba39)"><g clip-path="url(#ce275efd5a)"><path fill="#000000" d="M 42.488281 53.125 L 0.902344 58.921875 L 23.292969 4.910156 L 69.140625 0.835938 Z M 42.488281 53.125 " fill-opacity="1" fill-rule="nonzero"/></g></g></g></g><path fill="#4c9cc8" d="M 166.160156 273.335938 L 176.410156 249.789062 L 181.695312 249.789062 L 187.089844 274.617188 Z M 166.160156 273.335938 " fill-opacity="1" fill-rule="nonzero"/><path fill="#f8b498" d="M 168.921875 309.496094 L 157.597656 301.21875 C 156.933594 300.734375 156.722656 299.832031 157.109375 299.101562 C 157.527344 298.3125 158.492188 297.992188 159.296875 298.378906 L 167.695312 302.382812 L 157.851562 295.21875 C 157.238281 294.773438 157.039062 293.949219 157.375 293.273438 C 157.761719 292.496094 158.710938 292.1875 159.480469 292.585938 L 169.144531 297.59375 L 158.386719 289.171875 C 157.648438 288.59375 157.457031 287.554688 157.9375 286.75 C 158.484375 285.839844 159.675781 285.570312 160.558594 286.152344 L 172.167969 293.792969 L 164.488281 286.414062 C 163.925781 285.871094 163.921875 284.972656 164.484375 284.429688 C 164.957031 283.972656 165.691406 283.914062 166.230469 284.292969 L 179.175781 293.398438 C 179.175781 293.398438 184.179688 297.582031 179.011719 305.464844 C 173.847656 313.347656 167.746094 311.859375 167.746094 311.859375 Z M 168.921875 309.496094 " fill-opacity="1" fill-rule="nonzero"/><path fill="#000000" d="M 135.566406 214.734375 C 147.292969 203.457031 134.632812 198.835938 134.632812 198.835938 Z M 135.566406 214.734375 " fill-opacity="1" fill-rule="nonzero"/><path fill="#f8b498" d="M 112.179688 217.332031 L 104.964844 245.691406 L 121.835938 246.242188 L 124.558594 230.648438 Z M 112.179688 217.332031 " fill-opacity="1" fill-rule="nonzero"/><path fill="#000000" d="M 124.273438 232.390625 L 111.1875 225.671875 C 110.800781 236.242188 122.894531 240.160156 122.894531 240.160156 Z M 124.273438 232.390625 " fill-opacity="1" fill-rule="nonzero"/><path fill="#f8b498" d="M 107.84375 216.230469 C 107.316406 231.328125 116.089844 233.292969 116.089844 233.292969 C 123.757812 236.78125 129.648438 234.074219 133.144531 228.378906 C 135.894531 223.90625 136.539062 212.855469 136.6875 208.332031 C 136.734375 206.976562 135.519531 202.960938 134.746094 201.847656 C 126.875 190.496094 108.628906 193.726562 107.84375 216.230469 Z M 107.84375 216.230469 " fill-opacity="1" fill-rule="nonzero"/><path fill="#000000" d="M 132.246094 218.9375 C 132.847656 218.925781 133.347656 219.402344 133.363281 220.003906 C 133.375 220.605469 132.898438 221.101562 132.296875 221.117188 C 131.695312 221.128906 131.195312 220.652344 131.183594 220.050781 C 131.167969 219.449219 131.644531 218.953125 132.246094 218.9375 Z M 132.246094 218.9375 " fill-opacity="1" fill-rule="nonzero"/><path fill="#000000" d="M 122.808594 216.90625 C 123.410156 216.894531 123.910156 217.371094 123.921875 217.972656 C 123.9375 218.574219 123.460938 219.074219 122.859375 219.085938 C 122.257812 219.097656 121.757812 218.621094 121.742188 218.019531 C 121.730469 217.417969 122.207031 216.921875 122.808594 216.90625 Z M 122.808594 216.90625 " fill-opacity="1" fill-rule="nonzero"/><path fill="#000000" d="M 126.816406 224.292969 C 126.8125 224.117188 126.949219 223.972656 127.125 223.96875 L 128.597656 223.925781 L 128.320312 220.402344 C 128.308594 220.226562 128.4375 220.074219 128.609375 220.0625 C 128.78125 220.035156 128.933594 220.179688 128.949219 220.351562 L 129.253906 224.207031 C 129.261719 224.292969 129.230469 224.378906 129.175781 224.441406 C 129.117188 224.507812 129.035156 224.546875 128.949219 224.546875 L 127.140625 224.597656 C 127.140625 224.597656 127.136719 224.597656 127.132812 224.597656 C 126.960938 224.597656 126.820312 224.460938 126.816406 224.292969 Z M 126.816406 224.292969 " fill-opacity="1" fill-rule="nonzero"/><path fill="#000000" d="M 124.875 210.4375 C 121.761719 209.730469 119.804688 210.636719 118.5625 211.265625 C 117.957031 211.570312 117.578125 212.183594 117.761719 212.839844 C 117.957031 213.523438 118.65625 213.90625 119.34375 213.742188 C 121.199219 213.292969 123.160156 213.316406 124.5 213.417969 C 125.386719 213.484375 126.132812 212.773438 126.113281 211.886719 C 126.097656 211.167969 125.574219 210.59375 124.875 210.4375 Z M 124.875 210.4375 " fill-opacity="1" fill-rule="nonzero"/><path fill="#000000" d="M 131.949219 212.039062 C 134.042969 212.320312 134.984375 213.765625 135.566406 214.734375 C 135.851562 215.207031 135.914062 215.898438 135.621094 216.457031 C 135.316406 217.039062 134.78125 217.1875 134.410156 216.820312 C 133.402344 215.839844 132.199219 215.261719 131.355469 214.953125 C 130.796875 214.746094 130.539062 213.851562 130.792969 213.019531 C 131 212.355469 131.480469 211.972656 131.949219 212.039062 Z M 131.949219 212.039062 " fill-opacity="1" fill-rule="nonzero"/><path fill="#000000" d="M 103.996094 206.078125 C 104.738281 202.054688 107.066406 198.4375 110.96875 196.203125 C 115.96875 193.339844 122.464844 192.660156 128.273438 193.347656 C 133.132812 193.921875 137.242188 196.332031 138.453125 200.726562 C 140.257812 207.285156 134.511719 209.34375 131.621094 209.195312 C 130.171875 209.117188 128.796875 208.648438 127.550781 207.992188 C 123.054688 205.621094 116.484375 204.550781 116.484375 204.550781 C 115.5625 214.871094 107.757812 219.785156 107.757812 219.785156 C 107.757812 219.785156 103.097656 210.925781 103.996094 206.078125 Z M 103.996094 206.078125 " fill-opacity="1" fill-rule="nonzero"/><path fill="#f8b498" d="M 107.109375 210.378906 C 110.042969 210.203125 112.5625 212.4375 112.742188 215.371094 C 112.917969 218.304688 110.679688 220.824219 107.746094 221 C 104.8125 221.175781 102.292969 218.941406 102.117188 216.007812 C 101.941406 213.074219 104.175781 210.554688 107.109375 210.378906 Z M 107.109375 210.378906 " fill-opacity="1" fill-rule="nonzero"/><path fill="#000000" d="M 109.207031 217.851562 C 109.203125 216.578125 108.847656 215.589844 108.144531 214.917969 C 107.058594 213.878906 105.476562 213.933594 105.46875 213.933594 C 105.316406 213.945312 105.148438 213.808594 105.140625 213.632812 C 105.132812 213.457031 105.269531 213.3125 105.441406 213.304688 C 105.515625 213.296875 107.292969 213.238281 108.574219 214.460938 C 109.410156 215.253906 109.832031 216.394531 109.839844 217.851562 C 109.839844 218.027344 109.695312 218.167969 109.523438 218.167969 C 109.347656 218.167969 109.210938 218.027344 109.207031 217.851562 Z M 109.207031 217.851562 " fill-opacity="1" fill-rule="nonzero"/><path fill="#f8b498" d="M 130.308594 244.445312 C 130.308594 244.445312 125.996094 254.632812 114.761719 254.125 C 103.527344 253.621094 99.199219 242.179688 99.199219 242.179688 C 116.527344 239.335938 130.308594 244.445312 130.308594 244.445312 Z M 130.308594 244.445312 " fill-opacity="1" fill-rule="nonzero"/><path fill="#000000" d="M 121.46875 226.929688 C 121.382812 226.777344 121.433594 226.585938 121.582031 226.496094 C 121.734375 226.410156 121.925781 226.457031 122.015625 226.609375 C 123.648438 229.398438 127.910156 228.308594 127.953125 228.296875 C 128.113281 228.253906 128.292969 228.355469 128.339844 228.523438 C 128.382812 228.691406 128.285156 228.863281 128.117188 228.90625 C 128.03125 228.929688 127.140625 229.160156 126 229.160156 C 124.488281 229.160156 122.539062 228.757812 121.46875 226.929688 Z M 121.46875 226.929688 " fill-opacity="1" fill-rule="nonzero"/><path fill="#4c9cc8" d="M 106.125 241.128906 L 115.191406 250.746094 L 122.597656 241.894531 L 131.285156 243.121094 L 126.113281 262.855469 L 115.285156 255.171875 L 103.878906 260.8125 L 97.519531 242.386719 Z M 106.125 241.128906 " fill-opacity="1" fill-rule="nonzero"/><path fill="#000000" d="M 115.285156 282.25 C 115.144531 282.25 115.035156 282.140625 115.035156 282.003906 L 115.035156 255.730469 C 115.035156 255.59375 115.144531 255.480469 115.285156 255.480469 C 115.421875 255.480469 115.53125 255.59375 115.53125 255.730469 L 115.53125 282.003906 C 115.53125 282.140625 115.421875 282.25 115.285156 282.25 Z M 115.285156 282.25 " fill-opacity="1" fill-rule="nonzero"/><g mask="url(#4d49de181f)"><g transform="matrix(1, 0, 0, 1, 241, 286)"><g clip-path="url(#c6c35f416a)"><g clip-path="url(#5f3a3a4fee)"><path fill="#ffffff" d="M 1.058594 2.195312 C 1.375 2.648438 1.894531 2.84375 2.390625 2.953125 C 3.492188 3.195312 4.691406 3.117188 5.640625 2.441406 C 5.859375 2.289062 6.078125 2.078125 6.109375 1.789062 C 6.144531 1.507812 5.988281 1.230469 5.777344 1.082031 C 5.566406 0.929688 5.316406 0.882812 5.066406 0.855469 C 4.042969 0.742188 3.019531 0.933594 1.996094 0.871094 C 1.65625 0.847656 1.199219 0.613281 0.957031 0.929688 C 0.707031 1.253906 0.851562 1.898438 1.058594 2.195312 Z M 1.058594 2.195312 " fill-opacity="1" fill-rule="nonzero"/></g></g></g></g><path fill="#b6e5ff" d="M 384.285156 93.25 C 386.792969 91.234375 387.191406 86.710938 387.21875 83.765625 C 387.304688 75.253906 384.757812 66.734375 381.265625 59.015625 C 380.183594 56.625 378.921875 54.101562 377.320312 52.019531 C 376.878906 51.449219 376.152344 50.421875 375.40625 50.128906 C 372.867188 49.113281 371.453125 51.542969 371.285156 53.746094 C 370.898438 58.695312 371.105469 64.382812 372.222656 69.234375 C 372.316406 69.644531 369.683594 59.621094 368.679688 56.992188 C 366.203125 50.476562 362.894531 44.121094 357.570312 39.496094 C 356.183594 38.292969 354.453125 36.90625 352.667969 36.347656 C 349.917969 35.476562 349.988281 39.246094 350.082031 40.90625 C 350.351562 45.535156 351.445312 51.40625 353.953125 55.421875 C 354.167969 55.765625 352.507812 52.941406 352.03125 52.28125 C 350.519531 50.203125 348.671875 48.378906 346.878906 46.550781 C 342.21875 41.792969 336.039062 37.847656 329.605469 36.03125 C 328.027344 35.585938 324.484375 34.601562 323.058594 36.03125 C 321.730469 37.363281 322.875 40.425781 323.246094 41.90625 C 324.703125 47.773438 329.644531 53.492188 333.875 57.589844 C 335.527344 59.1875 341.546875 63.828125 341.324219 64.058594 C 341.070312 64.324219 338.269531 62.875 337.988281 62.757812 C 334.898438 61.484375 331.574219 60.09375 328.183594 60.011719 C 326.75 59.976562 324.539062 59.925781 324.921875 61.867188 C 325.398438 64.304688 327.433594 66.40625 329.261719 67.941406 C 334.265625 72.160156 340.296875 75.234375 346.269531 77.851562 C 348.492188 78.824219 350.683594 79.832031 352.929688 80.753906 C 353.75 81.089844 356.691406 82.191406 356.558594 82.28125 C 355.996094 82.671875 347.074219 80.375 343.851562 80.414062 C 342.511719 80.429688 340.789062 80.433594 340.890625 82.210938 C 341.269531 88.867188 350.707031 92.027344 355.953125 93 C 357.246094 93.238281 363.078125 94.804688 364.777344 95.101562 C 367.203125 95.527344 369.648438 95.941406 372.101562 96.109375 C 374.984375 96.304688 377.664062 95.949219 380.449219 95.257812 C 381.210938 95.070312 383.746094 93.882812 384.285156 93.25 " fill-opacity="1" fill-rule="evenodd"/><g clip-path="url(#2e6bcbe38e)"><path fill="#ffffff" d="M 390.382812 105.207031 C 390.449219 105.207031 390.523438 105.199219 390.597656 105.183594 C 391.125 105.066406 391.457031 104.542969 391.339844 104.011719 C 390.996094 102.488281 390.082031 101.128906 389.277344 99.933594 C 389.078125 99.632812 388.878906 99.335938 388.691406 99.046875 C 386.261719 95.21875 383.246094 91.679688 380.332031 88.265625 L 378.871094 86.554688 C 370.453125 76.613281 361.648438 68.09375 351.964844 60.507812 C 350.414062 59.296875 348.882812 57.976562 347.339844 56.652344 C 343.929688 53.722656 340.402344 50.691406 336.464844 48.574219 C 335.992188 48.3125 335.394531 48.492188 335.140625 48.972656 C 334.882812 49.449219 335.058594 50.042969 335.539062 50.296875 C 339.285156 52.320312 342.730469 55.277344 346.058594 58.140625 C 347.628906 59.488281 349.183594 60.820312 350.753906 62.054688 C 360.335938 69.558594 369.039062 77.984375 377.375 87.820312 L 378.839844 89.539062 C 381.710938 92.902344 384.679688 96.386719 387.035156 100.097656 C 387.230469 100.402344 387.4375 100.714844 387.648438 101.027344 C 388.394531 102.136719 389.164062 103.277344 389.421875 104.441406 C 389.527344 104.898438 389.933594 105.207031 390.382812 105.207031 " fill-opacity="1" fill-rule="nonzero"/></g><path fill="#ffffff" d="M 364.917969 74.402344 C 364.984375 74.402344 365.054688 74.394531 365.125 74.378906 C 365.652344 74.269531 365.992188 73.746094 365.875 73.214844 C 364.589844 67.210938 362.925781 60.183594 360.375 53.617188 C 360.175781 53.113281 359.617188 52.875 359.105469 53.058594 C 358.601562 53.257812 358.351562 53.824219 358.546875 54.332031 C 361.046875 60.769531 362.683594 67.695312 363.960938 73.628906 C 364.054688 74.089844 364.464844 74.402344 364.917969 74.402344 " fill-opacity="1" fill-rule="nonzero"/><path fill="#ffffff" d="M 364.929688 74.519531 C 365.40625 74.519531 365.824219 74.175781 365.898438 73.691406 C 365.984375 73.15625 365.617188 72.65625 365.082031 72.570312 C 362.386719 72.140625 359.507812 72.097656 356.722656 72.058594 C 355.304688 72.035156 353.898438 72.011719 352.53125 71.9375 C 350.820312 71.847656 349.179688 71.460938 347.441406 71.054688 C 346.179688 70.753906 344.871094 70.449219 343.539062 70.261719 C 342.964844 70.21875 342.503906 70.570312 342.429688 71.101562 C 342.359375 71.640625 342.734375 72.132812 343.269531 72.210938 C 344.511719 72.378906 345.714844 72.664062 346.992188 72.960938 C 348.734375 73.371094 350.539062 73.796875 352.425781 73.898438 C 353.816406 73.972656 355.246094 73.996094 356.691406 74.019531 C 359.40625 74.0625 362.210938 74.101562 364.777344 74.507812 C 364.824219 74.519531 364.878906 74.519531 364.929688 74.519531 " fill-opacity="1" fill-rule="nonzero"/><path fill="#ffffff" d="M 370.710938 91.207031 C 373.851562 91.207031 377.183594 90.902344 380.503906 90.292969 C 381.035156 90.195312 381.386719 89.683594 381.292969 89.152344 C 381.191406 88.621094 380.679688 88.253906 380.148438 88.363281 C 372.949219 89.691406 365.734375 89.519531 360.832031 87.910156 C 360.300781 87.734375 359.765625 88.019531 359.59375 88.535156 C 359.425781 89.046875 359.707031 89.605469 360.21875 89.773438 C 363.117188 90.722656 366.757812 91.207031 370.710938 91.207031 " fill-opacity="1" fill-rule="nonzero"/><path fill="#b6e5ff" d="M -9.445312 175.535156 C -11.957031 173.519531 -12.355469 168.996094 -12.382812 166.050781 C -12.46875 157.539062 -9.921875 149.019531 -6.429688 141.300781 C -5.347656 138.910156 -4.085938 136.386719 -2.480469 134.304688 C -2.042969 133.734375 -1.316406 132.707031 -0.570312 132.410156 C 1.96875 131.398438 3.382812 133.828125 3.554688 136.03125 C 3.9375 140.980469 3.730469 146.667969 2.617188 151.519531 C 2.523438 151.929688 5.15625 141.90625 6.15625 139.273438 C 8.636719 132.761719 11.945312 126.40625 17.265625 121.777344 C 18.652344 120.578125 20.382812 119.191406 22.167969 118.628906 C 24.917969 117.761719 24.847656 121.53125 24.753906 123.191406 C 24.484375 127.816406 23.394531 133.691406 20.886719 137.707031 C 20.671875 138.050781 22.328125 135.226562 22.804688 134.566406 C 24.316406 132.488281 26.164062 130.660156 27.957031 128.832031 C 32.617188 124.078125 38.796875 120.128906 45.230469 118.316406 C 46.808594 117.871094 50.351562 116.886719 51.78125 118.316406 C 53.105469 119.648438 51.960938 122.707031 51.589844 124.191406 C 50.136719 130.058594 45.191406 135.773438 40.960938 139.871094 C 39.308594 141.472656 33.289062 146.109375 33.511719 146.34375 C 33.769531 146.609375 36.566406 145.160156 36.847656 145.042969 C 39.9375 143.769531 43.261719 142.378906 46.65625 142.296875 C 48.085938 142.261719 50.296875 142.210938 49.917969 144.152344 C 49.4375 146.589844 47.40625 148.6875 45.574219 150.226562 C 40.570312 154.445312 34.542969 157.519531 28.570312 160.132812 C 26.34375 161.109375 24.152344 162.117188 21.90625 163.039062 C 21.085938 163.371094 18.144531 164.476562 18.28125 164.566406 C 18.839844 164.953125 27.761719 162.660156 30.988281 162.695312 C 32.324219 162.710938 34.046875 162.71875 33.945312 164.496094 C 33.570312 171.148438 24.128906 174.3125 18.882812 175.28125 C 17.589844 175.519531 11.757812 177.085938 10.058594 177.386719 C 7.632812 177.8125 5.191406 178.226562 2.734375 178.394531 C -0.148438 178.589844 -2.828125 178.234375 -5.613281 177.542969 C -6.375 177.355469 -8.910156 176.167969 -9.445312 175.535156 " fill-opacity="1" fill-rule="evenodd"/><g clip-path="url(#ddab95782e)"><path fill="#ffffff" d="M -15.546875 187.492188 C -15.613281 187.492188 -15.6875 187.484375 -15.761719 187.46875 C -16.289062 187.351562 -16.621094 186.824219 -16.503906 186.296875 C -16.160156 184.769531 -15.246094 183.414062 -14.441406 182.21875 C -14.242188 181.917969 -14.042969 181.621094 -13.855469 181.332031 C -11.425781 177.5 -8.410156 173.964844 -5.492188 170.550781 L -4.035156 168.835938 C 4.386719 158.898438 13.1875 150.378906 22.871094 142.792969 C 24.421875 141.582031 25.953125 140.261719 27.496094 138.9375 C 30.90625 136.003906 34.433594 132.976562 38.371094 130.859375 C 38.84375 130.597656 39.441406 130.777344 39.699219 131.257812 C 39.953125 131.730469 39.777344 132.324219 39.300781 132.582031 C 35.550781 134.601562 32.105469 137.558594 28.777344 140.421875 C 27.210938 141.773438 25.652344 143.105469 24.082031 144.339844 C 14.503906 151.84375 5.796875 160.269531 -2.539062 170.101562 L -4.003906 171.824219 C -6.875 175.1875 -9.84375 178.671875 -12.199219 182.378906 C -12.394531 182.6875 -12.601562 182.996094 -12.8125 183.3125 C -13.554688 184.417969 -14.328125 185.5625 -14.585938 186.726562 C -14.691406 187.183594 -15.097656 187.492188 -15.546875 187.492188 " fill-opacity="1" fill-rule="nonzero"/></g><path fill="#ffffff" d="M 9.917969 156.6875 C 9.851562 156.6875 9.78125 156.679688 9.710938 156.664062 C 9.183594 156.550781 8.84375 156.03125 8.960938 155.5 C 10.246094 149.492188 11.910156 142.46875 14.460938 135.902344 C 14.660156 135.394531 15.21875 135.15625 15.734375 135.339844 C 16.234375 135.542969 16.488281 136.109375 16.292969 136.613281 C 13.789062 143.050781 12.152344 149.980469 10.875 155.914062 C 10.78125 156.371094 10.371094 156.6875 9.917969 156.6875 " fill-opacity="1" fill-rule="nonzero"/><path fill="#ffffff" d="M 9.90625 156.804688 C 9.433594 156.804688 9.015625 156.460938 8.9375 155.976562 C 8.855469 155.441406 9.21875 154.9375 9.753906 154.855469 C 12.453125 154.425781 15.328125 154.382812 18.117188 154.339844 C 19.535156 154.316406 20.941406 154.296875 22.304688 154.222656 C 24.015625 154.128906 25.65625 153.742188 27.398438 153.335938 C 28.65625 153.039062 29.964844 152.730469 31.296875 152.546875 C 31.871094 152.5 32.332031 152.855469 32.40625 153.386719 C 32.476562 153.921875 32.101562 154.417969 31.566406 154.496094 C 30.324219 154.664062 29.121094 154.945312 27.84375 155.246094 C 26.101562 155.65625 24.296875 156.082031 22.410156 156.183594 C 21.019531 156.257812 19.589844 156.28125 18.144531 156.304688 C 15.429688 156.34375 12.625 156.386719 10.0625 156.792969 C 10.011719 156.800781 9.957031 156.804688 9.90625 156.804688 " fill-opacity="1" fill-rule="nonzero"/><path fill="#ffffff" d="M 4.125 173.488281 C 0.984375 173.488281 -2.347656 173.1875 -5.667969 172.578125 C -6.199219 172.476562 -6.550781 171.96875 -6.457031 171.4375 C -6.355469 170.902344 -5.84375 170.539062 -5.3125 170.648438 C 1.886719 171.976562 9.101562 171.804688 14.003906 170.195312 C 14.535156 170.019531 15.074219 170.304688 15.242188 170.820312 C 15.410156 171.332031 15.128906 171.886719 14.617188 172.054688 C 11.71875 173.007812 8.078125 173.488281 4.125 173.488281 " fill-opacity="1" fill-rule="nonzero"/><g clip-path="url(#8b4309bdde)"><path fill="#004aad" d="M 274.417969 191.417969 L 263.632812 184.917969 L 252.84375 191.417969 L 241.820312 184.789062 L 242.257812 184.0625 L 252.832031 190.429688 L 263.625 183.929688 L 274.410156 190.429688 L 285.210938 183.929688 L 295.996094 190.429688 L 306.796875 183.929688 L 317.585938 190.429688 L 328.160156 184.0625 L 328.597656 184.789062 L 317.59375 191.417969 L 306.808594 184.917969 L 296.019531 191.417969 L 285.234375 184.917969 Z M 306.796875 195.371094 L 317.585938 201.871094 L 328.597656 195.238281 L 328.171875 194.503906 L 317.59375 200.875 L 306.808594 194.375 L 296.023438 200.875 L 285.234375 194.375 L 274.449219 200.875 L 263.664062 194.375 L 252.878906 200.875 L 242.257812 194.503906 L 241.820312 195.238281 L 252.832031 201.871094 L 263.617188 195.371094 L 274.402344 201.871094 L 285.191406 195.371094 L 295.976562 201.871094 Z M 306.796875 205.824219 L 317.585938 212.320312 L 328.597656 205.691406 L 328.160156 204.964844 L 317.585938 211.335938 L 306.800781 204.835938 L 296.015625 211.335938 L 285.226562 204.835938 L 274.441406 211.335938 L 263.65625 204.835938 L 252.867188 211.335938 L 242.292969 204.964844 L 241.820312 205.691406 L 252.832031 212.320312 L 263.617188 205.824219 L 274.402344 212.320312 L 285.191406 205.824219 L 295.976562 212.320312 Z M 306.796875 205.824219 " fill-opacity="1" fill-rule="nonzero"/></g><g clip-path="url(#4b2356beea)"><path fill="#004aad" d="M 47.332031 22.273438 L 36.546875 15.773438 L 25.757812 22.273438 L 14.734375 15.644531 L 15.167969 14.917969 L 25.742188 21.285156 L 36.539062 14.785156 L 47.324219 21.285156 L 58.125 14.785156 L 68.910156 21.285156 L 79.710938 14.785156 L 90.496094 21.285156 L 101.074219 14.917969 L 101.511719 15.644531 L 90.507812 22.273438 L 79.71875 15.773438 L 68.933594 22.273438 L 58.148438 15.773438 Z M 79.710938 26.226562 L 90.496094 32.726562 L 101.511719 26.09375 L 101.082031 25.363281 L 90.507812 31.730469 L 79.722656 25.230469 L 68.9375 31.730469 L 58.148438 25.230469 L 47.363281 31.730469 L 36.578125 25.230469 L 25.789062 31.730469 L 15.167969 25.363281 L 14.734375 26.09375 L 25.742188 32.726562 L 36.53125 26.226562 L 47.316406 32.726562 L 58.101562 26.226562 L 68.890625 32.726562 Z M 79.710938 36.679688 L 90.496094 43.179688 L 101.511719 36.546875 L 101.074219 35.824219 L 90.5 42.191406 L 79.714844 35.691406 L 68.925781 42.191406 L 58.140625 35.691406 L 47.355469 42.191406 L 36.570312 35.691406 L 25.78125 42.191406 L 15.207031 35.824219 L 14.734375 36.546875 L 25.742188 43.179688 L 36.53125 36.679688 L 47.316406 43.179688 L 58.101562 36.679688 L 68.890625 43.179688 Z M 79.710938 36.679688 " fill-opacity="1" fill-rule="nonzero"/></g></svg>